<svg width="46" height="30" viewBox="0 0 46 30" fill="none" xmlns="http://www.w3.org/2000/svg">
<path d="M11.203 8.85C7.51916 9.85 0.121684 13.53 0.00220906 20.25C-0.147134 28.65 7.32004 30 8.96282 30H36.2927C38.5328 30 46 28.65 46 20.25C46 11.85 38.3835 9.75 35.546 9.75C34.9486 6.9 32.5591 0 24.3452 0C16.1313 0 13.2938 6.3 13.2938 8.4C13.2938 10.5 14.1898 11.25 14.6379 11.7C15.0859 12.15 16.7287 14.4 14.6379 16.5C12.5471 18.6 9.70955 16.5 9.41086 14.7C9.11217 12.9 9.56017 11.85 11.203 8.85Z" fill="white"/>
</svg>
